<svg width="181" height="75" viewBox="0 0 181 75" fill="none" xmlns="http://www.w3.org/2000/svg">
<g filter="url(#filter0_d_143_2)">
<path d="M6.5 65L25.0174 35.7995C28.2373 30.722 35.8056 31.2408 38.3025 36.7102V36.7102C40.5414 41.6146 47.0427 42.6752 50.7243 38.7367L53.2266 36.0599C58.3631 30.565 67.4964 32.4725 70.0043 39.5638L75.782 55.9008C77.7106 61.3542 82.867 65 88.6514 65V65C94.7707 65 100.142 60.9278 101.795 55.036L109.886 26.1893C110.292 24.7416 110.955 23.3787 111.844 22.1657L113.417 20.0179C119.087 12.279 131.212 14.6834 133.5 24V24L140.12 44.8784C142.403 52.0773 152.323 52.7574 155.566 45.9374V45.9374C158.971 38.7786 169.509 39.9844 171.208 47.7272L175 65" stroke="url(#paint0_linear_143_2)" stroke-width="4"/>
</g>
<defs>
<filter id="filter0_d_143_2" x="0.810974" y="13.3905" width="180.143" height="61.6095" filterUnits="userSpaceOnUse" color-interpolation-filters="sRGB">
<feFlood flood-opacity="0" result="BackgroundImageFix"/>
<feColorMatrix in="SourceAlpha" type="matrix" values="0 0 0 0 0 0 0 0 0 0 0 0 0 0 0 0 0 0 127 0" result="hardAlpha"/>
<feOffset dy="4"/>
<feGaussianBlur stdDeviation="2"/>
<feComposite in2="hardAlpha" operator="out"/>
<feColorMatrix type="matrix" values="0 0 0 0 0 0 0 0 0 0 0 0 0 0 0 0 0 0 0.25 0"/>
<feBlend mode="normal" in2="BackgroundImageFix" result="effect1_dropShadow_143_2"/>
<feBlend mode="normal" in="SourceGraphic" in2="effect1_dropShadow_143_2" result="shape"/>
</filter>
<linearGradient id="paint0_linear_143_2" x1="91.9967" y1="0.485291" x2="91.9967" y2="65" gradientUnits="userSpaceOnUse">
<stop stop-color="#15DADD"/>
<stop offset="1" stop-color="#223B4A"/>
</linearGradient>
</defs>
</svg>
